<svg xmlns="http://www.w3.org/2000/svg" viewBox="0 0 1000 1000" fill="none" stroke="#1c1c1c" stroke-width="2" stroke-linecap="round" stroke-linejoin="round">
  <path data-draw d="M297 107C324.368 139.114 324.25 196.583 313.92 235C310.996 245.875 310.478 258.485 304 268C300.032 264.776 298.913 260.499 296.742 256C291.913 245.995 281.344 231.303 282 220L300 236C302.314 220.116 281.028 204.983 283 189L298 199L300 197L271 162L296 171L260 131C275.575 127.108 293.341 147.321 304 156C310.594 141.497 292.382 122.77 297 107" />
  <path data-draw d="M418 156C409.6 172.191 388.425 178.21 378 193L397 190C389.406 204.955 365.174 208.186 355 222L376 219C365.026 231.364 342.398 235.819 335 251L349 249L313 280C310.119 269.495 320.501 253.223 325.258 244C339.899 215.617 359.228 186.961 386 168.746C394.012 163.295 407.941 153.849 418 156" />
  <path data-draw d="M247 278L260 273L219 266C223.648 256.573 237.568 257.426 246 253L246 252C232.161 244.248 215.463 251.275 201 247L215 236L181 241L198 224C186.032 220.562 170.656 231.792 160 236.424C156.502 237.945 150.312 242.011 146.336 241.021C140.314 239.521 152.489 229.021 154 227.808C156.594 225.725 159.297 223.796 162 221.86C167.181 218.147 173.074 215.086 177 210C157.718 204.462 135.931 225.878 116 220C123.468 210.987 138.311 206.598 149 202.576C158.933 198.839 170.336 195.51 181 195.039C233.252 192.731 274.205 238.403 291.612 284C293.455 288.827 293.352 294.104 295 299C303.78 284.316 299.583 275.084 296 260" />
  <path data-draw d="M360 285C346.305 285 328.333 285.811 316 292C315.795 286.109 320.78 282.947 325 279.435C335.064 271.059 345.774 263.523 357 256.8C395.84 233.542 440.911 224.062 482 247.579C491.36 252.936 505.256 259.91 510 270C492.607 272.787 477.896 249.018 461 251L483 282C477.737 283.79 474.132 279.968 470 276.873C462.186 271.023 449.38 256.933 439 258L453 278C441.019 278.521 432.553 263.145 420 265L432 276C426.604 278.603 421.45 275.428 416 273.859C406.151 271.023 393.203 266.012 383 269L408 284L360 279" />
  <path data-draw d="M251 279L272 282.495L287 287L275 282M311 281C307.801 288.694 295.18 301.332 300 308C284.788 316.36 263.881 334.291 270 355C276.164 354.897 273.903 361.668 275 366C286.429 360.067 291.285 346.844 294 335" />
  <path data-draw d="M287 287L291 288M312 288L316 287M295 290C296.484 291.611 307.203 303.934 307 296M337 290L342 292C336.039 297.586 323.192 295.274 316 293M315 291L308 296" />
  <path data-draw d="M288 302L261 321L267 309C253.625 307.633 240.216 328.274 229 334L237 313L200 344L209 318C188.19 326.005 176.065 349.889 159 363L166 335L120 383C115.732 368.421 132.478 346.692 141.004 336C175.261 293.038 237.797 283.06 288 302" />
  <path data-draw d="M295 299L294 302M302 300L305 300M308 300L314 305C310.029 306.724 305.055 307.717 304.627 312.915C304.235 317.684 310.494 323.5 313.207 327C320.906 336.932 328.045 347.643 333.463 359C355.885 405.995 349.466 458.09 317 499C310.712 477.68 334.121 454.305 328 433L308 459C302.574 440.471 322.527 420.874 317 402L301 423C296.091 406.391 311.709 388.39 307 372L293 393L297 372M293 301L292 310" />
  <path data-draw d="M288 302L292 302M303 302L305 310M295 303L296 303" />
  <path data-draw d="M315 305C331.231 314.018 331.37 331.174 344 342L345 335C354.016 346.697 362.239 367.565 376 374L373 349L405 390L402 364L432 407L431 379C449.014 395.001 451.814 422.395 466 441C470.223 426.713 463.759 407.537 459.078 394C453.358 377.458 446.214 361.432 434.7 348C407.107 315.81 360.631 305 320 305" />
  <path data-draw d="M303 317L302 331L304 322" />
  <path data-draw d="M301 332C298.324 342.856 289.318 361.267 292 372L304 355" />
  <path data-draw d="M270 355C256.855 368.431 247.976 386.28 239.756 403C235.235 412.197 230.215 422.624 230 433C243.114 421.359 253.165 403.023 261.989 388C265.24 382.466 270.706 375.474 271.62 369C272.139 365.325 269.645 361.588 269 358M304 358L304 361" />
  <path data-draw d="M790 417L790 418L753 422.089L682 422.911L646.005 418.109L630 426.385L593 427.089L537 431L512 428C526.307 420.46 538.079 422.137 553 419.786C559.138 418.819 562.394 413.128 568.001 410.995C573.028 409.082 578.005 411.635 583 410C577.55 401.735 582.905 394.459 590.004 389.156C602.612 379.738 619.308 375.079 635 375.079C646.115 375.079 657.447 378.682 665.961 385.808C669.721 388.955 672.643 394.827 677.089 396.883C684.31 400.221 692.782 393.081 700.999 397.303C706.855 400.313 707.945 408.833 714.019 410.566C721.187 412.612 730.572 410 738 410C753.814 410 775.175 411.448 790 417" />
  <path data-draw d="M511 428L512 428M230 433C219.14 450.83 206.389 467.227 196.864 486C172.327 534.359 153.852 586.974 135.692 638C127.789 660.206 116.963 682.246 110.885 705C107.048 719.367 106.314 739.715 97.3511 751.981C92.8541 758.135 88.9285 754.585 83 756.394C74.8454 758.88 68.1364 763.144 62 769" />
  <path data-draw d="M227 442C211.473 481.283 196.238 521.804 183.194 562C180.16 571.349 177.05 580.682 173.924 590C173.082 592.511 170.183 597.773 172.118 600.306C175.701 604.996 191.522 595.411 195 593.421C214.253 582.408 236.36 565.318 260 568.184C274.143 569.9 279.697 585.136 293 586.815C309.933 588.951 325.14 576.395 342 578.174C359.477 580.018 373.668 592.224 391 594.7C407.262 597.023 423.769 592.625 440 594.17C457.372 595.823 473.722 602.265 491 604.714C511.847 607.67 533.038 607.346 554 609" />
  <path data-draw d="M753 495C763.328 488.666 780.847 484.277 793 485.089C801.467 485.656 810.527 488.846 819 487.814C828.012 486.716 828.936 476.36 838 473.359C860.201 466.007 875.108 474.787 894 484.597C898.516 486.942 903.578 487.447 908 490C890.821 495.078 867.959 489.573 850 490.015C838.077 490.308 826.062 494.084 814 494.91C790.577 496.515 767.383 495.003 744 495" />
  <path data-draw d="M623 611C623 599.376 623.034 588.68 628.37 578C648.238 538.24 699.335 528.579 731.911 558.579C740.888 566.847 747.814 579.069 750.486 591C751.497 595.512 750.27 606.267 755.148 608.397C767.113 613.621 786.876 606.005 799 604.286C815.89 601.89 833.895 605.537 850 611L822 612.015L756 612.008L623 611.71L566 611" />
  <path data-draw d="M80 612L118 607.711L149 600M152 600L170 602C156.577 643.266 147.849 691.266 126 729L128 728" />
  <path data-draw d="M850 611L926 613M180 614L342 613.004L395 615.999L452 613.001L532 616.985L573 614" />
  <path data-draw d="M516 620L563 620M752 620L793 620" />
  <path data-draw d="M256 622L296 622M345 622L431 622" />
  <path data-draw d="M790 629L900 628M566 632L617 631M234 634L351 635" />
  <path data-draw d="M604 653L673 652M294 658L425 656M501 656L563 656" />
  <path data-draw d="M439 657L467 657M742 659L775 659M827 660L858 660" />
  <path data-draw d="M256 677L297 679M506 677L571 677" />
  <path data-draw d="M405 681L467 682M678 683L736 683" />
  <path data-draw d="M157 692C195.534 692.796 234.175 698.568 272 705.69C286.495 708.419 303.426 709.009 316.995 715.108C327.019 719.613 313.722 728.055 327 732.225C346.109 738.227 367.382 738.649 387 742.714C396.277 744.637 406.446 745.907 414 752C411.639 753.689 404.394 756.766 406.176 760.622C408.57 765.803 422.029 767.365 427 767.949C440.38 769.521 466.267 771.879 475 783C472.188 784.79 466.355 786.565 465.346 790.089C463.359 797.028 481.711 799.731 486 800.54C502.976 803.742 520.29 805.501 537 810.015C541.956 811.353 551.181 812.921 554.248 817.485C557.76 822.71 541.914 823.11 546.662 829.586C549.398 833.317 556.81 834.429 561 835.575C575.959 839.667 591.732 839.477 607 841.286C629.068 843.899 652.465 843.474 674 849.559C693.711 855.128 709.816 866.96 729 873.251C743.859 878.123 759.631 878.058 775 880" />
  <path data-draw d="M700 711L775 713M107 712C101.21 725.908 93.773 742.504 84 754" />
  <path data-draw d="M847 725L877 726M403 727C426.52 727 450.689 730.468 474 733.576C483.663 734.864 494.687 734.342 503 740L498 742" />
  <path data-draw d="M125 730C121.219 737.178 112.767 746.606 115 755C120.138 747.907 125.45 738.694 127 730" />
  <path data-draw d="M851 845C820.06 844.915 788.533 833.849 758 829.428C718.134 823.655 677.879 823.962 638 818.718C621.24 816.515 603.89 814.225 588 808.186C584.225 806.751 573.202 803.427 573.921 798.004C574.594 792.931 586.301 790.031 590 787C581.942 779.767 572.182 777.789 562 775.116C540.749 769.537 518.584 766.683 497 762.611C486.971 760.719 469.134 759.747 462 752L468 749" />
  <path data-draw d="M115 755C122.437 770.12 152.1 765.236 166 768.899C177.114 771.828 182.453 782.935 194 785.396C226.899 792.409 265.677 786.302 295 807L289 811C299.922 822.821 325.997 822.083 341 824.299C367.82 828.261 395.329 835.507 422 840.808C432.479 842.891 443.305 846.534 454 847" />
  <path data-draw d="M79 760C74.6428 763.768 69.9888 768.041 64 768M743 761L823 765" />
</svg>
