<svg xmlns="http://www.w3.org/2000/svg" viewBox="0 0 1000 1000" fill="none" stroke="#1c1c1c" stroke-width="2" stroke-linecap="round" stroke-linejoin="round">
  <path data-draw d="M586 119.616C593.453 117.908 599.076 126.223 601.651 132C610.338 151.489 610.222 170.632 624.424 188C634.643 200.497 640.178 214.228 648.154 228C654.828 239.525 664.755 248.613 671.547 260C677.593 270.137 680.056 281.8 685.879 292C689.694 298.683 695.268 304.082 698.73 311C701.791 317.118 702.709 324.046 706.043 330C717.113 349.766 727.959 365.893 731.561 389C734.096 405.264 727.607 421.624 728.015 438C728.327 450.546 734.995 461 732.334 474C730.345 483.718 718.621 506.032 728.43 514.397C735.273 520.232 747.478 504.586 751.167 516.019C754.29 525.696 742.185 542.562 739.64 552C736.506 563.622 737.687 575.829 732.688 587C727.809 597.898 716.592 605.897 712.854 617C711.067 622.309 713.283 627.724 712.121 633C710.924 638.439 706.583 642.287 703.969 647C698.711 656.481 698.594 665.487 688 671.637C681.345 675.499 673.911 674.335 667 676.994C660.372 679.544 655.744 685.425 648 684.341C638.611 683.027 627.717 670.579 618.015 676.742C612.835 680.034 602.381 694.889 602.202 701C601.873 712.23 617.982 723.705 599 728.971C596.746 729.596 594.332 730.399 592 730.631C585.643 731.264 582.362 725.178 577 723.009C572.439 721.164 567.328 722.933 563 720.258C547.511 710.686 534.398 694.114 514 705.684C508.97 708.537 504.144 713.04 503.214 719C502.417 724.105 505.105 730.348 501.296 734.682C495.237 741.578 483.879 730.74 476.434 740.094C472.355 745.219 475.475 751.389 473.397 756.999C471.325 762.59 464.868 765.01 461.858 770.004C456.848 778.317 458.999 788.008 451.815 795.985C444.931 803.628 433.491 807.626 424 802.482C417.991 799.224 411.603 791.145 404 794.024C393.12 798.144 391.317 811.316 383.815 818.815C377.641 824.986 368.347 826.809 361 831.208C349.131 838.314 341.502 849.821 327 851.711C315.139 853.256 298.515 850.079 289 842.61C282.035 837.142 277.653 829.184 270 824.468C263.021 820.168 245.917 818.328 247.272 807C249.529 788.143 284.204 785.25 286.333 766C287.389 756.455 269.691 751.292 265.97 743C260.163 730.062 272.318 724.643 271.752 713C271.375 705.254 262.625 701.702 264.275 693C265.621 685.908 272.163 681.004 274.072 674C275.92 667.219 272.073 660.217 276.804 654.185C281.626 648.038 294.009 647.537 295.638 638.999C297.9 627.142 277.926 621.479 282.995 608C285.785 600.581 293.481 595.708 300 591.861C303.786 589.627 309.523 587.06 309.953 581.996C310.864 571.255 292.052 568.053 293.257 556C294.54 543.171 319.368 538.787 317.458 527C316.558 521.453 310.026 518.171 306 515.101C299.79 510.365 294.746 504.709 292.761 497C290.217 487.12 294.343 476.975 292.786 467C291.764 460.451 286.221 455.612 285.213 449C284.142 441.976 286.473 435.094 281.606 429.039C278.157 424.749 272.796 418.837 267.996 416.136C263.327 413.508 257.16 413.135 254.323 407.906C251.867 403.379 255.28 399.958 257.086 396C262.168 384.86 276.646 381.03 287 375.976C291.643 373.71 294.359 369.179 300 369.099C308.913 368.971 316.999 378.053 324 382.518C327.814 384.95 333.478 385.726 334.639 379.981C336.837 369.105 321.348 359.803 317.533 351C313.138 340.859 320.719 331.897 319.435 322C318.485 314.677 310.45 311.663 306.843 305.985C303.925 301.391 305.361 295.351 302.397 291.059C299.399 286.719 294.054 287.149 290.093 284.297C286.821 281.941 285.081 278.116 281.907 275.637C279.416 273.692 273.421 272.027 273.921 267.971C274.28 265.051 277.53 263.049 279.147 260.83C283.522 254.83 283.553 246.202 292.001 243.743C298.096 241.969 304.381 247.97 309.487 241.852C312.029 238.805 312.249 234.47 313.999 231C316.732 225.583 321.55 221.671 323.907 216C330.699 199.658 330.097 184.624 345 172.329C365.542 155.381 392.432 163.31 416 166.866C433.183 169.458 448.07 162.38 465 163.04C481.345 163.677 496.411 171.63 513 167.985C527.72 164.75 551.731 162.354 562.985 151.895C571.807 143.696 573.049 122.584 586 119.616" />
</svg>
