<svg xmlns="http://www.w3.org/2000/svg" viewBox="0 0 1000 1000" fill="none" stroke="#1c1c1c" stroke-width="2" stroke-linecap="round" stroke-linejoin="round">
  <path data-draw d="M171 60C152.287 62.5322 140.173 76.2689 126 87C125.009 74.3206 111.698 90.7556 109 95C104.924 81.0822 117.128 72.0226 127 64.9598C133.601 60.2374 138.42 53.5089 145 48.7886C154.633 41.878 166.544 39.0131 178 36.8032C199.162 32.7211 220.712 35.3639 242 32.8303C255.594 31.2123 265.764 21.1885 279 19.3017C289.445 17.8129 292.052 25.3934 300.259 27.8333C305.26 29.3202 311.838 27.0253 317 27.0008C326.95 26.9535 336.558 28.5764 346 31.7493C359.551 36.3027 364.665 48.2907 375.015 56.6096C381.081 61.4852 387.936 61.8535 395 64C385.47 70.7058 375.254 70.1108 366 63.2392C359.144 58.1483 354.005 51.1465 347 46.2091C331.51 35.2919 311.302 32.7667 293 36.4491C278.276 39.4115 259.509 51.5376 245 50" />
  <path data-draw d="M270 42C278.142 34.5056 285.645 29.094 297 29" />
  <path data-draw d="M370 42L734 42L827 42C849.469 42 872.475 41.012 893 51.8896C919.36 65.8595 933.521 89.5866 939.334 118C941.91 130.589 940 145.171 940 158L940 237L940 333C940 351.435 941.948 370.968 937.525 389C930.509 417.609 913.601 442.317 888 457.547C864.257 471.672 838.581 471 812 471L722 471L337 471M246 50L255 47" />
  <path data-draw d="M430 51L753 51L823 51C847.569 51 871.612 50.9718 893 64.865C928.351 87.8276 929 127.565 929 165L929 309C929 350.587 933.081 389.523 903.714 423C897.677 429.881 890.553 435.819 883 440.971C859.352 457.102 833.411 457 806 457L731 457L459 457C420.975 457 378.347 462.31 341 454.486C321.162 450.33 303.041 439.467 286 429" />
  <path data-draw d="M400 61L406 61L396 64" />
  <path data-draw d="M407 61C407.569 65.9648 405.102 68.5068 401 71M406 71C414.434 71.0056 424.4 72.3793 428.528 81.0038C429.941 83.9562 428.777 87.0499 429.887 90C434.828 103.127 439.727 107.615 433 122" />
  <path data-draw d="M421 86L427 89C423.735 89.5013 422.483 88.9814 421 86M126 87C102.27 114.249 61.5605 152.908 96 189" />
  <path data-draw d="M426 147L419 158C418.326 151.401 423.62 149.566 426.698 144.66C429.342 140.445 430.821 132.932 430.821 128C430.821 114.583 418.189 109.178 415.752 98.0154C414.711 93.2495 420.764 92.1346 424 91" />
  <path data-draw d="M114 103C111.283 111.584 106.037 119.221 103.439 128C97.8242 146.971 97.0733 167.464 99.1736 187C101.73 210.777 120.466 232.929 130.514 254C140.118 274.142 142.498 295.686 152 316C161.868 307.122 174.436 308.415 184.985 301.451C192.593 296.429 194.002 287.735 199.468 281.001C206.258 272.636 215.617 266.769 222.076 258C236.833 237.965 230.004 210.756 243.108 191.004C257.501 169.308 272.458 181.426 287.09 193.606C292.226 197.883 297.787 198.86 301.521 205.001C306.762 213.62 307.511 223.753 311 233C322.522 218.008 317.245 204.13 323.468 188C327.685 177.071 338.527 173.769 345 165L331 164M393 108L388 112L392 103C394.789 110.275 401.406 109.535 406.96 114.329C418.383 124.192 418.064 139.201 410 151" />
  <path data-draw d="M394 109C399.244 131.657 411.742 155.425 412.62 179C413.04 190.303 399.691 196.617 402.529 209C405.153 220.45 415.569 232.567 422.291 242C425.243 246.143 430.644 251.524 430.303 257C429.601 268.284 415.764 265.441 410.603 272.225C406.144 278.086 412.263 284.113 410.894 289.999C409.747 294.926 403.898 295.412 402.302 299.414C400.836 303.092 405.653 306.868 404.353 310.996C402.295 317.536 394.546 319.298 394.059 327C393.446 336.685 398.445 344.903 392.298 353.996C374.797 379.885 337.41 346.262 315 353.854C303.11 357.882 302.673 372.246 298.208 382C291.291 397.109 277.342 410.422 268.6 425C265.593 430.016 256.562 440.659 257.932 446.812C259.329 453.083 275.272 456.399 279.815 461.104C287.741 469.313 290.5 484.195 293 495" />
  <path data-draw d="M387 113C384.255 126.306 378.593 140.443 366 147.352C359.991 150.648 353.379 150.983 347 153L347 163C367.813 168.201 383.609 143.481 385 126" />
  <path data-draw d="M250 184C266.852 180.871 279.951 190.285 280 208" />
  <path data-draw d="M239 206C239.935 227.771 256.957 269.673 285 263" />
  <path data-draw d="M670 251C692.895 233.546 725.918 248.395 726 278" />
  <path data-draw d="M665 256L660 264M832 266L866 258.039L899 264.486L921 266" />
  <path data-draw d="M772 280L815 268M0 274C23.5181 274.003 55.5568 280.196 72.9606 297.09C90.3836 314.003 96.99 343.478 98 367" />
  <path data-draw d="M592 279L600 280M602 281L606 281M608 282L611 282M715 282L767 282M614 283L618 283M653 298C670.678 289.733 693.571 284.536 713 283M620 284L626 284M628 285L636 285" />
  <path data-draw d="M639 286L645 286M648 287L681 287" />
  <path data-draw d="M399 299L401 299M834 301L882 301" />
  <path data-draw d="M622 304L658 304M485 305L559 305" />
  <path data-draw d="M152 316L147 336L151 321M670 318L775 318" />
  <path data-draw d="M564 334L703 334M3 500C17.6884 499.958 23.8663 476.31 30.9498 465C48.0087 437.762 69.5318 413.07 99 399C95.4813 395.751 91.5145 392.366 92.4375 387C93.6889 379.725 101.94 374.665 106.073 369C114.789 357.051 115.813 330.872 135 337.698C190.876 357.577 213.808 411.827 257 447M447 348L507 348M740 352L864 352M686 364L859 365" />
  <path data-draw d="M99 394C113.366 389.754 132.046 400.853 144 408.001C167.717 422.183 187.427 441.625 205.83 462C216.892 474.247 229.286 492.471 245 499.066C256.202 503.766 275.879 500 288 500C291.163 500 299.868 501.502 301.868 498.397C303.492 495.875 300.79 490.606 300.127 488C297.66 478.301 302.59 467.809 299.762 459C295.775 446.581 280.317 436.701 273 426" />
  <path data-draw d="M675 400L812 400M474 409L556 409" />
  <path data-draw d="M303 498L322 500L359 500L497 500L996 500M14 500L243 500" />
  <path data-draw d="M594 588C594.018 581.311 596.532 577.193 598.155 571C599.386 566.303 597.091 561.702 599.938 557.17C608.716 543.199 619.658 544.977 633 541.211C641.067 538.935 648.469 534.688 657 534.089C662.871 533.678 669.309 535.603 675 534.457C687.142 532.011 698.808 525.778 711 522.884C742.026 515.521 776.439 517.631 803 536.746C837.215 561.369 845.682 598.501 865.427 633C876.832 652.927 894.094 670.295 900.076 693C905.311 712.874 897.442 737.246 904.647 756C908.957 767.218 921.926 775.601 929.961 784C943.116 797.752 953.955 814.788 956.7 834C960.692 861.941 943 884.246 943 911C943 931.412 961.234 940.588 968.663 958C974.597 971.91 969.358 986.94 964 1000M622 949L272 949L189 949C163.697 949 138.95 949.447 116 936.971C90.4496 923.082 71.0914 900.094 63.0401 872C55.4429 845.491 60 813.332 60 786L60 661C60 613.29 60.2845 565.817 107 538.746C128.025 526.563 152.525 527 176 527L264 527L628 527" />
  <path data-draw d="M633 927C591.6 942.971 542.55 937 499 937L256 937C211.461 937 159.331 945.359 120 920.305C99.7379 907.397 81.6145 887.669 75.2894 864C69.1721 841.109 73 813.53 73 790L73 654C73 617.572 71.7638 578.153 104 553.503C125.771 536.856 149.912 537 176 537L243 537L580 537" />
  <path data-draw d="M634 556C655.717 581.543 653.035 619.857 674.465 646C696.376 672.731 736.35 675.24 752.73 708C765.302 733.145 752.849 762.721 768.204 788C787.508 819.778 830.623 820.463 852.243 850C871.875 876.821 858.778 904.802 865.749 934C871.795 959.324 892.315 974.739 902 998M587 598C583.598 583.123 582.258 564.813 599 557M600 569L610 562C611.546 575.116 595.704 591.767 591.064 604C587.599 613.134 582.588 625.068 583.213 635C583.791 644.189 589.337 652.602 587.099 662C584.507 672.89 575.652 682.249 567.996 690C564.463 693.577 557.824 698.274 558.503 703.999C559.628 713.491 573.159 712.709 574.929 721.015C577.215 731.746 567.283 735.678 581 743C578.189 745.289 574.07 747.859 574.194 752C574.35 757.149 580.616 759.16 581.75 764C584.166 774.309 574.972 783.925 585 792.917C604.064 810.01 634.101 777.21 653 793.222C660.838 799.863 663.855 811.63 667 821C673.92 841.618 684.747 864.208 686.917 886C687.455 891.41 686.956 897.156 684.444 902C683.632 903.568 680.989 908.665 680 907" />
  <path data-draw d="M607 577C607.774 588.041 617.137 597.081 621.691 607C635.052 636.098 644.317 669.336 673 687.564C692.096 699.699 720.844 698.989 735.073 718.015C744.521 730.648 742.077 744.633 739 759C734.379 780.576 726.334 803.7 736.992 825C754.014 859.017 801.083 852.342 827 875.184C853.157 898.238 848.19 935.777 870 961" />
  <path data-draw d="M605 582L606 584M841 583L841 585" />
  <path data-draw d="M609 588C613.507 621.474 626.202 667.963 654 689.471C672.03 703.422 701.308 694.145 712.2 718C718.21 731.163 712.619 747.132 708.333 760C698.531 789.43 679.888 825.054 704.301 852.985C708.809 858.143 714.769 862.326 721 865.135C728.577 868.551 736.629 871.635 745 872" />
  <path data-draw d="M846 594L847 597M847 597L850 604" />
  <path data-draw d="M850 604L851 607M851 607C854.674 628.336 865.851 650.283 872.495 671C881.266 698.345 886.881 728.296 902 753" />
  <path data-draw d="M455 699C463.309 695.903 470.879 694.743 479 699M479 713L493 713" />
  <path data-draw d="M250 740C273.11 717.382 309.223 732.555 305 766" />
  <path data-draw d="M143 750L174 754.464L204 764M431 753L446 753M344 767L426 754M906 761C908.932 790.256 934.244 813.152 937.816 843C941.032 869.879 923.624 896.782 929.899 923C934.902 943.906 958.149 955.823 958.741 978C958.93 985.095 955.95 992.691 953 999M937 792C952.141 770.814 972.796 762.217 999 762M217 768L259 767.089L316 779" />
  <path data-draw d="M310 772L342 768M547 769L558 769M290 770L293 770" />
  <path data-draw d="M702 782C702 793.67 700.65 806.635 703.333 818C711.786 853.801 747.08 858.207 775 872.167C783.581 876.457 792.085 881.085 799 888C801.693 890.693 804.24 896.715 805 896" />
  <path data-draw d="M938 793L932 811M199 795L278 795" />
  <path data-draw d="M303 818L313 818M356 819L441 819" />
  <path data-draw d="M180 831L262 831M463 832L545 832" />
  <path data-draw d="M747 873L780 882L779 880M177 874L327 874" />
  <path data-draw d="M628 998C633.271 978.682 637.163 953.203 651.439 938.286C661.411 927.865 675.566 924.545 685.961 914.826C693.688 907.601 698.947 898.261 707 891.184C720.012 879.751 737.141 876 754 876" />
  <path data-draw d="M782 881L786 883L780 882M783 882L783 884" />
  <path data-draw d="M786 883L796 886M785 884L803 896M221 889L493 889" />
  <path data-draw d="M603 999C616.833 985.129 622.017 970.742 630.89 954C634.919 946.396 641.101 940.43 645.323 933C649.694 925.308 651.852 916.61 658.104 910.04C665.097 902.693 676.874 897.154 686 893M806 894C832.738 920.961 845.505 960.669 853 997" />
  <path data-draw d="M680 910L675 911L679 908M677 912L659 924C662.126 917.831 669.057 914.164 675 911" />
</svg>
