<svg xmlns="http://www.w3.org/2000/svg" viewBox="0 0 1000 1000" fill="none" stroke="#1c1c1c" stroke-width="2" stroke-linecap="round" stroke-linejoin="round">
  <path data-draw d="M531 104L529 102C539.538 102.868 557.697 112.654 561 123" />
  <path data-draw d="M485 125L480 127C483.337 114.321 495.298 115.755 505 111.758C513.978 108.06 517.803 103.021 528 103M514 105L516 104" />
  <path data-draw d="M505 114C499.32 117.229 492.592 119.67 486 119" />
  <path data-draw d="M480 127L471 135C469.427 128.116 474.935 123.938 481 122" />
  <path data-draw d="M559 123C561.556 130.619 564.659 137.927 565.711 146C566.895 155.091 565.665 165.113 568.362 174C570.076 179.648 577.81 183.627 576.798 190C575.157 200.329 563.914 209.133 557 215.999C554.773 218.211 551.58 222.501 548 222.079C543.816 221.585 539.79 215.789 537 213C535.01 219.732 534.964 230.657 538 237C546.708 221.072 551.672 226.672 563 238" />
  <path data-draw d="M471 136C465.467 147.288 466.688 156.464 473 167L473 164" />
  <path data-draw d="M468 139C461.555 147.454 460.446 153.902 468 162" />
  <path data-draw d="M475 166L479 162C485.926 163.998 490.805 157.512 496.985 158.955C500.715 159.826 502.671 163.897 506.039 165.504C509.974 167.381 514.145 165.843 517.896 168.654C520.014 170.241 522.624 175.701 525.815 174.654C532.546 172.447 524.52 154.273 537 154.748C542.501 154.957 547.133 164.153 550.039 167.957C554.521 173.822 560.018 175.276 567 174M466 157L466 158" />
  <path data-draw d="M544 162C545.211 168.527 545.329 174.346 540 179" />
  <path data-draw d="M479 166C479.926 176.609 487.475 180.853 493.095 189C500.058 199.095 502.605 215.697 497.167 227C492.827 236.02 483.22 240.657 478 249C471.435 248.899 471.225 256.336 474.728 260.725C478.335 265.246 484.811 264.997 490 265C487.084 277.876 514.681 277.412 523 285L520.059 246L524.531 236L524.556 228L539 204M443 168C454.303 168.101 470.167 171.289 480 177M420 182L441 169" />
  <path data-draw d="M433 173L435 172M440 172C450.174 174.448 447.976 194.531 454 203M418 185C414.415 190.899 414.331 196.675 417 203L444 174" />
  <path data-draw d="M451 180C457.208 191.782 457.326 202.472 468 212C461.073 213.036 457.206 207.355 457 201M574 181C586.209 180.801 592.16 194.972 601.104 200.522C617.071 210.428 639.603 214.758 651.61 230.001C664.647 246.553 659.053 269.752 659 289" />
  <path data-draw d="M583 187C587.539 195.63 580.181 207.057 576.248 215C566.678 234.326 555.539 256.858 551 278" />
  <path data-draw d="M599 200C596.596 212.761 599.112 222.15 586 228L590.455 237L576.189 262L540 329L524 285" />
  <path data-draw d="M416 203L417 210C413.702 214.598 413.525 219.602 415 225L430 221C425.45 216.99 417.235 214.864 417 223" />
  <path data-draw d="M501 206C509.799 214.806 514.899 225.99 528 217" />
  <path data-draw d="M534 211L536 213M418 212L417 216" />
  <path data-draw d="M469 214C476.721 214.458 481.853 217.935 478 226L473 216" />
  <path data-draw d="M520 222C514.316 226.129 505.05 234.456 498 232" />
  <path data-draw d="M477 226C469.738 238.4 462.101 252.907 469 267" />
  <path data-draw d="M474 228L465 231M499 229L504 234" />
  <path data-draw d="M598 358L608 363C588.783 362.415 597.674 340.907 600.349 329C605.996 303.872 605.242 275.373 616.756 252C622.394 240.555 630.096 229.124 644 229" />
  <path data-draw d="M415 230C411.746 243.71 423.563 240.987 430.786 248.214C436.482 253.912 439.662 270.195 437.682 277.996C433.649 293.888 405.411 289.21 397.824 305C392.856 315.339 392.697 328.773 391.91 340C390.598 358.732 389.031 381.184 383 399L379 396L379 388L375 400L385 404C391.084 402.645 395.421 409.503 400.917 405.306C409.831 398.496 401.571 393.149 403.25 385C403.816 382.252 408.838 377.675 407 377" />
  <path data-draw d="M555 233C550.125 244.886 552 257.234 552 270" />
  <path data-draw d="M542 234C542.614 246.705 539.542 260.895 535 273L534 246" />
  <path data-draw d="M505 235C507.519 241.736 506.592 244.058 504 250L506 248M535 235L535 242" />
  <path data-draw d="M505 251C500.619 257.332 498.6 261.407 491 264" />
  <path data-draw d="M173 316L186 314C190.835 297.83 201.399 288.438 219 287" />
  <path data-draw d="M658 291C657.76 302.607 654.619 314.671 652.211 326C647.692 347.259 643.552 372.508 629.62 390C618.83 403.548 602.262 412.033 588 421.344C576.771 428.675 566.043 436.744 555 444.341C551.831 446.521 546.335 452.266 542.213 451.887C539.574 451.644 538.166 447.942 537 446L533 449C540.923 459.391 545.765 472.921 550.6 485C552.673 490.178 554.506 498.432 558.649 502.321C564.838 508.131 575.57 505.651 583 505C605.076 503.067 629.885 499.752 651 493" />
  <path data-draw d="M260 302L262 306L274 305" />
  <path data-draw d="M296 314L304 325C309.789 323.424 314.982 326.144 320 329M144 329L167 316" />
  <path data-draw d="M422 330C426.655 332.212 433.897 340.611 439 339.941C445.231 339.123 452.29 330.322 458 327.326C476.212 317.771 489.53 327.939 502.039 341C505.592 344.709 511.497 348.745 512.723 354C513.913 359.103 510.821 365.978 509.801 371C507.146 384.065 503.513 396.604 506 410C511.637 406.029 520.969 398.746 523.218 392C525.789 384.287 516.962 364.773 513 358" />
  <path data-draw d="M340 329L341 329M408 376C406.519 370.859 403.258 366.304 402.329 361C400.153 348.589 405.93 329.05 420 329M540 329C542.785 347.931 547.57 372.419 555 390L596 359M102 337L97 336C106.356 326.96 127.963 330 140 330M323 330L338 330" />
  <path data-draw d="M169 337L200 337M106 338L115 338M205 338L271 338M283 338L299 338" />
  <path data-draw d="M459 368L461 360L462 368" />
  <path data-draw d="M782 368L802 364M411 365L416 380L409 378" />
  <path data-draw d="M451 369L454 374L457 369" />
  <path data-draw d="M414 374L412 378M431 374L432 374M453 378L461 376L450 385L448 377" />
  <path data-draw d="M816 378L821 377M430 378L433 382" />
  <path data-draw d="M639 379L653 489M774 379L777 379" />
  <path data-draw d="M389 402C387.438 393.455 392.18 386.719 400 383M435 382L442 384" />
  <path data-draw d="M424 383C419.271 390.667 416.673 393.667 408 397M372 390L369 384L377 393" />
  <path data-draw d="M399 386L400 386M439 386L442 391C456.215 378.901 455.906 401.282 467 403" />
  <path data-draw d="M442 391C438.988 398.114 432.648 404.826 425 400M471 392C474.192 395.042 467.618 395.678 465 393L463 399L466 397M554 391C558.521 415.354 534.473 415.43 523.736 431.598C520.993 435.729 528.334 447.176 532 449M880 391L882 391M731 395L729 394L734 392M409 395L412 393" />
  <path data-draw d="M421 394L429 401M442 394C448.07 403.144 447.528 425.773 461 428" />
  <path data-draw d="M375 399C371.267 396.898 373.812 395.44 377 397L377 397" />
  <path data-draw d="M407 402L406 403M432 402C435.689 405.252 442.366 410.245 441.374 415.996C440.378 421.771 434.226 424.365 434.208 431C434.191 436.957 441.596 438.458 439 444L438 439" />
  <path data-draw d="M455 409L462 403M427 404L421 411M461 404C464.55 409.011 465.529 412.292 463 418M394 422L394 416L383 420C378.987 414.291 378.32 409.757 384 405" />
  <path data-draw d="M397 408L413 409M452 408L454 408" />
  <path data-draw d="M396 411L395 415M412 411C412.947 414.695 416.553 422.808 421 418M505 411C495.752 422.11 479.747 434.687 466 439.576C458.664 442.186 449.218 440.909 442.579 444.798C436.008 448.648 421.529 455.092 426 464L439 457M370 418L365 419L365 420L375 418L375 413" />
  <path data-draw d="M487 422C485.035 422.689 467.083 424.51 472.712 419.008C478.231 413.616 492.774 413.001 500 413" />
  <path data-draw d="M443 416L456 418M411 417L413 417M414 418C413.343 426.799 402.922 436.874 414.094 444.205C417.127 446.196 420.864 447.036 424 449L422 445" />
  <path data-draw d="M376 420L373 426C379.085 427.797 381.417 432.475 387.001 434.968C393.731 437.974 402.858 433.353 408 429M421 420L434 426" />
  <path data-draw d="M394 425L405 432M396 425L397 426" />
  <path data-draw d="M485 425C477.14 429.473 466.271 431.241 462 440" />
  <path data-draw d="M527 429L537 445M431 430C430.715 436.526 428.51 440.342 424 445" />
  <path data-draw d="M379 431L380 440L387 436" />
  <path data-draw d="M455 431L456 438M521 432L486 451.568L456 473C461.508 481.845 467.789 489.15 468.823 500C470.073 513.13 464.878 524.746 469.356 538C475.671 556.693 492.344 567.635 492.871 589C493.599 618.479 477.426 642.812 496 671M564 432L548 440L548 442L549 443L552 440M459 433L461 434" />
  <path data-draw d="M389 437C388.345 440.141 387.358 442.962 384 441M395 437C394.61 446.247 398.089 446.633 402 454M435 438L437 447" />
  <path data-draw d="M379 441L380 445L383 444M411 442L402 451" />
  <path data-draw d="M439 444L439 446M527 444C517.026 453.967 498.303 467.441 483.058 466.678C479.255 466.488 476.336 462.625 472 462M380 445C381.638 457.957 383.471 468.162 395 476.362C401.145 480.732 416.305 480.12 419 472L395 466" />
  <path data-draw d="M412 446C411.191 451.085 409.5 454.169 404 453" />
  <path data-draw d="M415 447L416 450M425 448L427 448" />
  <path data-draw d="M394 457C402.136 461.281 414.188 468.96 423 463M479 463L492 457" />
  <path data-draw d="M426 468C431.65 470.888 436.603 467.243 442 465M456 473C448.645 475.957 442.453 481.466 435 476L449 470M429 471L434 476M395 472L408 476" />
  <path data-draw d="M392 474L374.551 514L349.449 575L332 616L325 615L319 605L314 611" />
  <path data-draw d="M452 477L452 483L447 478" />
  <path data-draw d="M435 478C434.376 491.645 423.88 502.193 423.093 516C422.096 533.497 437.553 545.407 438.907 562C440.526 581.841 425.423 594.358 420.209 612C417.6 620.828 417.757 644.198 431 644L425 641M438 479L439 498L440 493" />
  <path data-draw d="M441 481L445 492M447 481L451 494M441 483L441 485" />
  <path data-draw d="M453 483L457 489L456 485" />
  <path data-draw d="M454 489C456.154 506.044 448.757 521.972 452.285 539C456.519 559.428 471.95 576.098 469.83 598C466.859 628.698 438.634 654.687 459 685C462.433 684.049 463.626 684.348 466 687L460 685" />
  <path data-draw d="M637 503C634.966 519.011 636.66 534.032 635.961 550C634.772 577.135 633.302 604.996 637.272 632C640.397 653.266 648.751 673.526 650.83 695C651.904 706.088 650.641 718.191 652.278 729C655.597 750.918 671.554 782.759 691 794C694.754 781.299 687.852 766.976 682 756M559 504L574.485 547L605.309 637L632.138 682L652 725" />
  <path data-draw d="M285 594L291 577C296.484 582.049 302.061 598.537 303.568 605.961C304.14 608.778 301.825 610.355 303 613" />
  <path data-draw d="M61 617L81 614C76.8201 607.915 84.5887 588.269 89 582C93.6026 588.887 101.85 606.573 98 614L106 615L112 601L113 601L120 617L128 618L137 591C140.649 596.46 148.069 612.078 146 618C156.151 618.62 159.916 621.989 168 614C174.014 620.06 178.946 624.462 188 620.903C190.45 619.94 192.271 617.816 195 617.526C199.11 617.089 204.483 620.56 208.416 617.897C212.97 614.813 213.475 606.729 218 603L226 618L235 617L245 612C241.719 605.011 250.53 586.56 255 580C259.725 586.695 269.738 604.784 266 612L281 610L280 607" />
  <path data-draw d="M909 598L914 586L929 614L925 620L955 621" />
  <path data-draw d="M282 599L287 597M298 597L300 601M637 622L653.13 617.197L667 620L668 619C667.393 612.643 671.648 602.448 675 597L685 620L705 623L713 604L720 618L719 615" />
  <path data-draw d="M739 615L749 598L756 612L758 624L773.791 625.15L783.27 615.346L793 626L809 624" />
  <path data-draw d="M82 600L80 602M262 600L264 600" />
  <path data-draw d="M375 604C367.734 661.193 350.887 718.741 326.219 771C313.901 797.096 297.354 820.534 284 846" />
  <path data-draw d="M904 607C906.304 605.883 906.407 605.557 906 608" />
  <path data-draw d="M145 607L145 610M920 607L922 607" />
  <path data-draw d="M874 614L877 609L885 623L904 619L902 612M306 611L313 614" />
  <path data-draw d="M45 620L59 616M332 616C325.856 638.464 313.737 660.281 305.203 682C291.749 716.238 280.784 750.68 260.947 782C251.9 796.283 241.987 810.869 229.83 822.714C222.743 829.62 210.611 835.003 208 845" />
  <path data-draw d="M720 618L722 624C729.121 622.1 734.94 626.374 739 618M872 618C868.464 628.547 857.552 622.378 849.83 621.847C845.999 621.584 841.925 625.113 838 625.699C829.286 627 819.802 626 811 626M959 620L977 620" />
  <path data-draw d="M38 621L43 621M738 621L740 623" />
  <path data-draw d="M536 637C542.399 664.661 552.467 690.65 556.572 719C561.836 755.354 561.582 792.384 575.604 827C583.697 846.978 598.027 862.453 610 880" />
  <path data-draw d="M732 681C731.394 677.104 733.203 676.316 736 679M736 677L740 676" />
  <path data-draw d="M737 682C739.122 681.254 742.392 679.222 744.662 680.252C751.262 683.244 745.599 691.663 740.78 692.714C737.705 693.384 729.001 689.301 731 686M867 681L876.654 684.388L872.677 695L881 721M728 685L730 681" />
  <path data-draw d="M864 682L861 691L872 692" />
  <path data-draw d="M271 697C265.257 697.545 261.756 690.984 268.059 688.122C270.606 686.965 274.491 688.159 275.169 691.119C275.829 693.998 272.885 696.314 272.588 699.089C272.008 704.506 273.985 710.483 274 716" />
  <path data-draw d="M735 691C730.384 706.949 724.058 722.537 718.061 738C715.094 745.649 710.56 753.668 713 762C718.54 752.95 724.267 747.647 731.698 740.402C734.852 737.326 739.15 728.112 743.897 736.546C748.265 744.308 738.322 745.468 734 740M224.98 693.082C232.468 690.672 236.903 701.099 227.996 703.922C218.601 706.9 216.891 695.685 224.98 693.082" />
  <path data-draw d="M77 708C74.4034 715.608 51.5195 710.427 65 702C64.1009 695.87 68.4087 696.89 71 701C75.6453 699.724 75.841 703.104 73 706" />
  <path data-draw d="M228 705L228 740L234 734C234.837 741.31 228.721 741.929 225.804 747.218C222.769 752.722 222.878 760.064 221 766L215 758L215 759L215 760L215 761" />
  <path data-draw d="M950 717C941.306 712.602 949.397 703.596 955.588 709.769C960.024 714.19 951.729 717.581 950.344 721.133C946.937 729.868 948 740.828 948 750" />
  <path data-draw d="M169 722L170 710L172 725C179.233 719.969 179.389 728.14 174 731M69 711C69 722.238 74.7745 743.643 69 753C65.1878 749.936 62.4191 747.075 63 742L71 751" />
  <path data-draw d="M881 718L887 712L886 719" />
  <path data-draw d="M685 723L681 722C684.691 714.982 693.115 712.014 699 718L696 720" />
  <path data-draw d="M273 762C267.051 750.852 272.932 723.99 281 715L279 723M684 716L688 715" />
  <path data-draw d="M698 719C700.916 726.521 691.924 724.489 690.318 730.097C686.806 742.363 692.656 756.632 689 769" />
  <path data-draw d="M872 721L879 730C874.582 728.273 871.528 725.992 872 721M911.149 722.071C916.742 719.118 923.993 727.539 916.89 730.848C911.542 733.339 905.009 725.313 911.149 722.071" />
  <path data-draw d="M171 726C167.017 731.163 161.432 730.097 163 723L167 725" />
  <path data-draw d="M170 730L171.009 781L176 820C168.159 818.826 165.131 811.073 164 804M880 731C883.737 742.789 882.31 753.961 882.015 766C881.598 783.021 882.232 800.275 878.486 817C876 828.102 871.467 838.639 870 850" />
  <path data-draw d="M203.148 734.302C208.567 732.336 213.283 741.12 206.867 743.119C201.455 744.805 197.569 736.327 203.148 734.302M652 733L652 734" />
  <path data-draw d="M93 747C90.517 742.908 89.7331 740.338 92 736C94.926 737.369 98.717 737.324 100.708 740.163C104.875 746.103 99.3147 749.387 94 747L89 755" />
  <path data-draw d="M950 767C954.345 756.409 959.629 748.739 969 742L962 758" />
  <path data-draw d="M203 745C194.533 764.101 190.625 789.321 188 810" />
  <path data-draw d="M776 751L777 746L785 747C786.791 750.686 795.498 756.13 787 757" />
  <path data-draw d="M42.1296 751.444C51.4911 748.002 51.9355 759.775 43.9992 762.677C36.3125 765.489 36.145 753.645 42.1296 751.444" />
  <path data-draw d="M777 761L781 760L778 765L777 761C771.658 760.107 770.588 754.89 774 751M71 753L81 787L85 767M244.147 754.502C249.448 752.963 253.785 761.443 247.888 763.733C242.153 765.96 238.371 756.18 244.147 754.502" />
  <path data-draw d="M790 758L791 763C787.207 764.17 784.301 765.535 781 763M706 759L708 803" />
  <path data-draw d="M47 763C59.8822 785.071 68.4221 813.563 70 839M712 763L708 780" />
  <path data-draw d="M778 765L770 784M221 766L209 838" />
  <path data-draw d="M127 808C126.667 800.356 124.947 789.194 119 784L117 788L115 788L113 784C101.534 785.043 116.796 770.89 120 769L123 773L127 771C129.357 776.228 130.791 785.602 122 782" />
  <path data-draw d="M751 777L756 769L755 780" />
  <path data-draw d="M122 774L122 775M935 786C927.75 784.501 926.376 774.408 934.982 775.667C937.9 776.094 940.247 778.919 939.343 781.886C938.592 784.347 936.015 785.587 935.317 788.129C932.855 797.091 932.193 810.626 932 820M128 775L124 778M839 785C832.687 785.574 835.403 780.635 838.734 777.881C841.931 775.238 846.128 775.965 850 775L855 781L850 785" />
  <path data-draw d="M790 796L789 800C785.241 798.104 784.084 796.143 785 792L789 795C789.018 788.579 790.109 784.207 794 779L792 792M851 779L849 781" />
  <path data-draw d="M232 818C232 811.407 234.632 802.195 232.936 796C231.754 791.683 226.309 784.613 231 781M750 780L747 800L742 785M890 780C888.841 785.625 886.409 791.175 886.225 797C886.115 800.443 888.052 803.561 887.683 807C886.627 816.845 883.791 823.851 887 834L893 810" />
  <path data-draw d="M900 922C901.348 906.566 910.303 894.425 916.806 881C920.695 872.97 922.892 863.406 926.799 855C933.095 841.455 941.521 828.451 948.247 815C951.625 808.244 957.789 800.426 959.193 793C959.795 789.812 957.448 782.885 962.144 781.832C969.359 780.214 969.692 790.068 963 792M184 782L182 805M354.019 783.238C361.214 781.733 362.968 791.259 355.958 792.814C348.911 794.377 347.158 784.673 354.019 783.238" />
  <path data-draw d="M621 832L622 799C610.711 801.087 615.742 784.76 627 786" />
  <path data-draw d="M890 785L890 793M835 786L838 796L842 790" />
  <path data-draw d="M854 786L848 789L860 828C864.958 816.813 867.033 810.05 867 798" />
  <path data-draw d="M81 788C89.8385 817.625 97 849.988 97 881" />
  <path data-draw d="M847 788L848 789M627 790L634 791L634 797" />
  <path data-draw d="M356 794L357 819M631 794L632 794" />
  <path data-draw d="M791 797C800.098 793.294 798.232 806.533 789 800" />
  <path data-draw d="M623 799L629 800L628 798M47 808L45 813C32.6578 810.882 38.607 801.309 48 799L49.3094 809L68 836" />
  <path data-draw d="M889 799L888 801M747 800C747.006 809.005 744.826 828.185 748.912 836C752.984 843.788 762.476 850.301 769 856L772 843M787 800L773 840" />
  <path data-draw d="M82 803C82.2478 815.004 83.4895 826.922 82.9606 839C82.4845 849.874 80.5167 860.424 84 871M907 812L910 803C912.216 804.672 916.418 806.329 917.338 809.144C919.781 816.621 910.689 816.848 907 813C896.144 824.351 885.703 840.865 885 857" />
  <path data-draw d="M136 815C135.487 814.033 134.659 812.989 134.469 811.84C132.012 796.946 153.779 816.978 136 815L132.036 838L141.641 899L138 914M166 805L176 818M201 805L197 817" />
  <path data-draw d="M404 808C409.977 823.89 382.4 807.941 401 805" />
  <path data-draw d="M124 814L126 822C123.815 820.396 113.447 807.816 120 810" />
  <path data-draw d="M711 808L734 823L735 811" />
  <path data-draw d="M259 815C260.839 816.078 263.069 817.112 264.517 818.728C272.315 827.428 250.58 836.26 254 828M358 822L366 815C365.759 819.472 364.008 822.024 360 824M396 815L366 888" />
  <path data-draw d="M868 815L861 836L860 828" />
  <path data-draw d="M254 822C251.592 818.489 254.226 817.338 257 820" />
  <path data-draw d="M261 819L261 820M964 829C959.477 820.378 969.547 817.025 971.4 824.999C972.477 829.637 963.152 830.489 960.815 834.023C953.934 844.427 948.12 857.682 946 870" />
  <path data-draw d="M351 828L349 820L354 828" />
  <path data-draw d="M177 821L179.907 843L180 860C188.18 851.843 197.652 843.275 209 840" />
  <path data-draw d="M127 822L131 830M252 822L251 828" />
  <path data-draw d="M794 828L782 852M823 858L834 864C832.456 855.341 826.619 846.609 821 840C808.853 850.905 810.696 822.641 823 831" />
  <path data-draw d="M30 840L25 839L31 830C35.2535 831.148 43.5325 831.422 38 837M197 830L194 839M355 830L344 892M261 831L268 875L276 852L274 862" />
  <path data-draw d="M611 832C617.508 843.75 617.666 853.819 616 867" />
  <path data-draw d="M887 834L887 837M611 835L615 852" />
  <path data-draw d="M614 888L615 920C624.106 893.318 632.127 871.796 647.813 848C650.816 843.446 648.515 838.962 653 835M41 836C42.2262 842.126 30.3138 848.525 28 841" />
  <path data-draw d="M310 839C313.957 835.648 321.864 839.1 318.802 844.878C315.958 850.243 305.942 850.247 307 843M939 836L939 838" />
  <path data-draw d="M531 847C524.813 841.8 530.485 840.834 535 838C538.387 841.205 552.503 850.495 541 854L540 859C533.834 856.149 527.096 853.467 524 847M659 838C660.021 844.426 658.428 849.787 651 846M800 838L797 846M108 839L105 864M764 839L763 849" />
  <path data-draw d="M131 843L130.961 871L128 908M157 843C161.78 853.239 167.47 863.396 168 875" />
  <path data-draw d="M537 843L537 845M36 844L57 896" />
  <path data-draw d="M725 849C736.813 851.351 717.372 869.303 713.326 857.695C711.464 852.351 720.765 842.229 723 851" />
  <path data-draw d="M794 846L791 856M72 848L80 863M158 848L160 868" />
  <path data-draw d="M315 849C315.002 867.058 318.614 888.072 325 905L331 887" />
  <path data-draw d="M841 855L843 849L844 856M144 850L137 870" />
  <path data-draw d="M121 855L120 861M530 855C513.329 877.948 504.671 907.526 499 935" />
  <path data-draw d="M771 856C783.471 871.496 808.487 872.749 822 889M237 857L241 869M676 857L681 869" />
  <path data-draw d="M840 857L839 872L835 865M75 858L81 871" />
  <path data-draw d="M872 859C872.819 859.298 868.1 869.305 866.778 872C859.95 885.912 854.788 897.368 854 913" />
  <path data-draw d="M180 860C175.84 864.897 171.799 870.443 177 876L179 863M676 860L678 873M797 860L797 862M858 860L857 872M921 860L918 870" />
  <path data-draw d="M724 861L733 903L745 879M809 861L813 865M237 862C237.002 878.387 244.378 900.478 252 915" />
  <path data-draw d="M349 924C354.961 906.495 366.434 896.571 380 885C383.205 889.055 385.325 891.012 390 888L386 884L404 877C404.568 871.897 406.891 868.966 411 866L413 874" />
  <path data-draw d="M940 868C934.999 874.545 928.716 880.503 920 878C924.853 872.137 931.954 865.99 940 868" />
  <path data-draw d="M507 878L508 869L512 885" />
  <path data-draw d="M629 870L629 875M748 870L747 873M897 870L882 901M966 870L960 881" />
  <path data-draw d="M493 907C490.061 896.255 480.559 883.41 483 872L491 885" />
  <path data-draw d="M596 872L601 882M839 872L846 891" />
  <path data-draw d="M876 894L894 873M124 874L128 891M387 874C387.032 878.606 385.094 881.873 381 884L387 874" />
  <path data-draw d="M694 874L689 884M157 875L158 875" />
  <path data-draw d="M177 876L201.995 884.343L216 902" />
  <path data-draw d="M268 876C263.852 886.995 262.86 900.471 265 912M334 876L333 881" />
  <path data-draw d="M298 900C292.357 893.649 291.609 885.089 294 877L301 902C305.099 898.706 308.049 895.447 307 890L302 895" />
  <path data-draw d="M412 877C414.811 879.627 415.144 881.339 414 885C409.229 883.831 405.851 883.326 405 878" />
  <path data-draw d="M857 877L857 885M221 878L230 892M598 878L602 916M150 879L150 882M177 879L176 889" />
  <path data-draw d="M508 882L512 888M681 882L687 889" />
  <path data-draw d="M199 883L181 909M337 883L336 905M841 883C840.933 891.096 840.49 901.418 834 907L828 895M42 884L52 894M357 884L350 905C348.553 899.211 351.296 893.132 354 888" />
  <path data-draw d="M515 912C520.024 903.991 525.917 897.056 534 892C535.243 902.608 521.748 913.252 515 920M175 893L176 917L178 914" />
  <path data-draw d="M756 893L746 905M145 894L145 895M196 895L193 905M236 895L237 896" />
  <path data-draw d="M624 914L638 895L636 907" />
  <path data-draw d="M37 896L39 896M674 896L670 911" />
  <path data-draw d="M232 897L232 901M696 904L702 897L707 908C710.047 905.306 715.233 896.724 719 902M781 910L794 897M796 899L798 902C799.935 899.79 801.678 897.366 804 900L804 902" />
  <path data-draw d="M88 916C83.5328 911.329 76.3375 904.86 77 898C87.255 903.928 93.5418 913.292 98 924" />
  <path data-draw d="M143 902L144 920M281 912C284.785 906.795 286.097 902.803 293 905L293 905M301 902L302 916M474 902L476 904" />
  <path data-draw d="M408 912L413 915C406.603 922.036 393.581 915.594 400.742 907.337C403.8 903.811 406.678 908.212 410.09 908.052C414.642 907.839 420.445 905.123 425 904L427 916L441 903" />
  <path data-draw d="M566 903L574 925L582 919M635 913L652 904L646 913M44 904L54 916" />
  <path data-draw d="M325 906L322 920M350 906L348 917" />
  <path data-draw d="M462 909L470 923M498 909L499 916" />
  <path data-draw d="M127 912L127 924M400 914C389.415 916.441 378.955 923.827 372 932M548 916C554.72 911.328 560.886 921.449 565 915" />
  <path data-draw d="M615 920L615 926M585 922L586 922" />
</svg>
