<svg xmlns="http://www.w3.org/2000/svg" viewBox="0 0 1000 1000" fill="none" stroke="#1c1c1c" stroke-width="2" stroke-linecap="round" stroke-linejoin="round">
  <path data-draw d="M582 166C572.483 149.093 580.592 140.988 591.561 128C610.057 106.099 638.499 93.9158 664 112.76C684.33 127.783 689.455 149.512 701.927 170C710.692 184.398 727.038 191.696 735.934 206C743.675 218.445 740.233 229.886 743.61 243C746.128 252.784 754.421 259.695 758.073 269C764.854 286.273 735.563 314.159 755 326C745.777 336.451 723.097 327.587 717 318C710.06 328.373 705.065 344.655 703.286 357C702.82 360.227 700.891 364.855 701.479 368C703.13 376.83 712.712 387.672 716.742 396C725.431 413.959 732 433.084 738.258 452C763.155 527.26 779.801 605.08 805.694 680C813.497 702.577 822.56 724.64 833.247 746C837.437 754.374 848.157 765.956 849.481 774.999C850.379 781.133 841.466 784.336 837 785.832C828.494 788.68 819.641 788.762 811 790.899C807.762 791.7 803.476 794.307 800.108 793.293C796.432 792.187 794.771 787.314 794 784L801 795" />
  <path data-draw d="M629 238L634 219C623.807 220.885 619.039 213.056 612.13 206.427C608.133 202.592 601.95 202.763 598.603 199.397C595.504 196.28 597.503 189.932 596.606 186C595.327 180.395 590.562 176.343 588.559 171C586.09 164.414 580.77 145.869 590.055 142.161C596.42 139.619 608.559 153.682 614 156.688C619.961 159.981 626.248 162.498 633 163.561C638.566 164.437 644.363 163.069 648.895 167.198C658.792 176.215 655.107 197.338 663.221 208.996C666.762 214.084 674.205 220.763 681 220.034C691.938 218.861 698.578 211.291 709.999 218.13C736.988 234.289 728.455 273.098 722.545 298C720.937 304.775 717.612 310.992 717 318" />
  <path data-draw d="M646 163C667.171 157.24 664.13 190.045 669.403 201C673.98 210.511 681.88 212.223 691 215" />
  <path data-draw d="M655 188C651.68 193.346 650.37 199.594 647.073 204.999C645.044 208.326 641.297 211.255 640.314 215.089C638.634 221.644 641.664 228.428 640.099 235C636.749 249.075 630.59 263.079 635 278L654 238L653 246" />
  <path data-draw d="M606 202C606.357 210.314 606.805 219.044 609.344 227C611.806 234.716 616.677 242.729 616.405 251C615.585 275.955 600.568 304.145 607.789 328.999C611.038 340.18 619.634 335.792 626 330C626.484 337.988 616.742 345.996 612.119 352C598.067 370.248 581.921 396.864 560 405.988C546.279 411.699 516.766 420.043 522 441L539 422" />
  <path data-draw d="M644 211C652.222 218.51 654.753 225.752 658 236L668 231M635 218L640 213" />
  <path data-draw d="M676 227C667.632 238.754 663.866 253.598 658.947 267C651.426 287.49 640.904 313.08 627 330M718 227C723.318 245.601 724 259.767 724 279" />
  <path data-draw d="M377 285L371 278C369.319 282.391 368.405 287.172 365.442 290.957C362.919 294.18 358.02 296.046 356.643 300.043C355.155 304.361 354.118 315.304 354.277 320C354.382 323.097 356.329 326.88 353.526 329.382C347.231 335.002 338.013 322.083 331.603 331.109C327.189 337.325 333.645 341.625 335.552 347C338.301 354.75 332.731 363.432 325.981 366.897C317.689 371.153 305.894 357.192 300.675 350.999C292.956 341.839 279.634 335.614 280.058 322C280.236 316.279 284.06 311.6 284.502 306C284.909 300.835 282.968 295.969 285.457 291C288.022 285.879 292.955 283.677 296.787 279.791C300.272 276.257 302.024 271.694 306.015 268.529C316.693 260.065 327.795 263.669 340 261.675C346.748 260.573 353.185 256.347 360 256.133C374.377 255.683 384.11 273.446 377 285" />
  <path data-draw d="M634 279C631.984 286.547 628.671 293.12 631 301L633 287M702 283C680.162 313.4 661.037 346.783 633.996 372.961C619.281 387.206 602.372 398.958 586.001 411.155C580.895 414.96 577.388 420.648 571.999 424.005C565.917 427.795 558.333 427.471 552 430.569C546.581 433.219 542.891 438.555 538 442L540 430C534.965 433.557 530.637 442.525 524 440" />
  <path data-draw d="M377 286C381.934 292.42 382.999 300.862 387.653 306.816C391.11 311.238 398.75 312.776 401.002 318.043C402.749 322.128 397.969 326.347 399.02 331C400.284 336.599 405.021 351.004 402.099 355.895C397.77 363.14 386.556 361.399 380.044 365.279C374.54 368.558 368.923 387.623 368.539 394C368.175 400.027 375.984 403.592 377.852 409C379.382 413.43 377.613 417.665 378.608 422C380.954 432.221 384.531 444.448 388.864 454C394.026 465.378 401.622 476.068 409.13 486C411.221 488.767 414.381 494.699 418.09 495.388C426.627 496.976 442.66 484.871 449 480.127C455.288 475.421 459.803 471.111 465 479C469.298 475.032 469.776 468.831 473.105 464.039C477.506 457.704 486.11 454.535 489.821 447.83C492.418 443.138 491.718 435.331 493.151 430C494.488 425.027 499.688 413.007 492.941 410.709C482.246 407.066 474.963 428.427 479.349 436.686C480.77 439.362 485.421 439.902 488 441L473.637 456L463 472" />
  <path data-draw d="M631 301L633 318M724 301C724.43 311.01 727.035 319.653 734 327" />
  <path data-draw d="M681 365L696 367C691.5 368.33 683.922 369.378 681 365M644 868C639.52 877.667 656.966 877.019 663 876.999C679.619 876.946 693.152 869.865 708.996 867.635C716.271 866.611 723.278 872.105 730.721 867.012C738.702 861.55 733.581 847.681 729 842C717.209 853.539 697.733 862.575 681 862.985C675.24 863.126 668.717 859.187 663.871 859.742C654.791 860.781 647.274 867.057 638 867.841C629.242 868.582 620.612 867.898 612 866.435C609.645 866.035 603.322 865.913 603.921 862.079C604.702 857.086 620.682 852.771 624.911 853.396C629.607 854.09 632.854 857.707 638 857.96C653.481 858.719 676.539 853.859 687.91 842.829C692.527 838.351 698.376 830.005 696.667 823.059C695.374 817.803 685.271 817.759 681 815.623C672.538 811.393 666.022 804.71 656 804.271C644.723 803.777 634.418 809.894 623 807.1C611.954 804.398 618.262 795.032 610.938 791.728C603.82 788.517 589.283 791.828 585.607 782.815C582.852 776.058 588.652 762.052 590 755C594.066 733.722 597.423 711.598 598.911 690C604.518 608.576 606.738 527.321 622.8 447C626.359 429.203 631.196 411.729 635 394C636.401 387.473 637.801 375.974 643.214 371.56C652.259 364.183 669.17 366 680 366" />
  <path data-draw d="M696 367L700 367M639 368L642 371M322 370C324.315 377.335 343.305 381.677 350 386.079C357.773 391.189 366.247 397.8 370.891 406C373.497 410.602 373.876 415.557 377 420" />
  <path data-draw d="M369 406L364 423C348.972 407.298 334.71 391.933 312 389C312.388 383.165 315.026 375.796 321 374M288 849C302.612 851.148 319.088 857.039 333 848.775C347.317 840.271 348.392 821.747 350.424 807C355.799 767.97 351.317 728.201 353 689C322.26 690.574 291.502 715.125 263.289 688.536C247.352 673.515 244.462 645.388 248.666 625C250.345 616.859 255.145 609.031 256.373 601C257.123 596.096 252.842 592.255 253.631 587C255.109 577.163 259.586 567.623 262.116 558C266.875 539.897 270.027 521.635 271.83 503C275.686 463.158 274.171 415.943 311 390" />
  <path data-draw d="M354 420C366.238 433.417 369.941 450.683 376.603 467C382.528 481.511 393.571 493.454 399.324 508C401.835 514.348 399.086 520.525 401 527L403 516" />
  <path data-draw d="M546 425L541 429M509 434L511 434L512 435L510 438L509 434M508 437L504 442L514 443L512 438" />
  <path data-draw d="M488 441L497 442L492 447M497 442L504 443C501.656 447.918 491.376 457.656 492.036 462.686C492.389 465.372 496.982 465.632 499 465.829C506.325 466.542 513.402 463.519 519 459L498 454" />
  <path data-draw d="M514 445C521.441 445.603 531.427 446.259 534.898 454.179C538.783 463.042 526.319 484.927 519.674 490.301C509.415 498.598 491.773 495.812 480 502C475.353 495.609 470.099 483.804 461 482.927C455.702 482.417 448.108 489.692 444 492.637C431.327 501.72 413.435 502.637 402 512" />
  <path data-draw d="M523 447L524 452L527 448" />
  <path data-draw d="M532 452L527.062 463.985L515 476M523 453L520 459M387 454L386 483" />
  <path data-draw d="M528 467C519.284 486.651 496.149 485.499 482 499" />
  <path data-draw d="M298 478C308.019 485.655 315.218 497.182 323.003 507C335.096 522.25 347.627 536.885 362 550C371.786 558.929 383.657 570.55 398 568.816C415.513 566.697 433.884 550.321 447 539.576C459.106 529.658 482.404 518.662 480 502M299 479L309 492M466 479L462 483" />
  <path data-draw d="M362 552L363 553M363 553L360.213 575L361.628 589.999L356 600C367.48 603.393 382.213 600.897 394 600.089C414.941 598.655 437.072 596.245 458 598.714C470.962 600.244 485.236 599.42 494.072 611.039C503.803 623.836 499.575 642.449 497.421 657C492.487 690.339 488.24 723.591 484.285 757C483.143 766.655 483 776.283 483 786C483 789.759 483.963 795.423 481.258 798.486C478.24 801.904 471.167 801.339 467 802.13C452.676 804.851 439.373 805.708 425 803C424.8 807.65 420.741 816.576 423.068 820.61C429.596 831.926 456.349 826.982 462.307 817.714C464.497 814.307 463 807.942 463 804" />
  <path data-draw d="M744 593C744.298 607.419 748.349 621.834 750.714 636C755.735 666.063 762.027 695.742 770.576 725C776.274 744.503 782.084 767.262 794 784M259 599C278.886 609.423 304.138 598.274 325 597.093C335.063 596.524 345.009 600.953 355 598" />
  <path data-draw d="M626 633C626 686.374 621.827 739.131 615 792" />
  <path data-draw d="M460 643L450 654L460 646" />
  <path data-draw d="M450 654C436.431 667.571 436.066 681.499 433.845 700C431.324 720.996 429.232 742.019 426.715 763C425.359 774.295 419.466 792.63 425 803M439 658L432 663L440 664M434 660L436 659M354 688C381.013 684.362 406.07 670.504 432 663" />
  <path data-draw d="M263 689C263.952 698.502 269.316 707.763 271.848 717C277.929 739.186 282.917 761.982 289.859 783.895C292.418 791.973 307.694 794.522 304 805C298.093 800.496 293.34 795.51 292 788" />
  <path data-draw d="M148 761C140.165 772.015 142.137 783.459 139.916 796C136.274 816.559 122.461 833.619 140 852C132.708 853.727 128 845.459 127.185 839C125.26 823.738 137.961 807.787 134 794C125.85 794.144 132.504 766.672 136.638 762.318C142.63 756.008 159.492 763.387 167 764" />
  <path data-draw d="M169 765L179 771C186.648 765.827 196.616 771.964 205 772.949C223.718 775.148 243.588 776.523 262 780.511C270.569 782.367 280.36 789.609 289 788M179 772C173.523 784.895 174.23 801.229 174.934 815C175.145 819.122 175.038 827.176 177.938 830.397C181.898 834.793 201.934 832.598 208 833.086C234.316 835.202 259.75 846.87 286 848" />
  <path data-draw d="M801 795C803.527 805.511 794.678 807.804 786 810.151C774.33 813.308 762.861 813.607 751 811.389C745.002 810.267 732.807 806.755 727.318 810.318C719.434 815.435 728.001 835.237 729 842" />
  <path data-draw d="M662 806C662 813.42 662.57 821.039 659.471 828C653.828 840.672 638.55 845.488 628 853M697 820L725 811M150 837L154 837C155.644 827.781 164.391 813.94 174 812" />
  <path data-draw d="M464 816C480.074 829.089 491.985 839.99 513 843.751C518.058 844.656 526.893 846.546 527.534 852.988C528.343 861.118 512.216 861.649 507 862.421C482.287 866.079 462.942 855.55 439 855M689 819L691 837M421 822L419 826L421 822" />
  <path data-draw d="M419 826C412.695 834.265 415.214 841.585 414.71 851C414.525 854.451 411.886 858.331 415.434 861.012C422.03 865.995 444.269 865.588 445 856" />
  <path data-draw d="M155 838C158.486 841.596 167.366 844.444 168.079 849.949C168.561 853.671 163.66 854.644 161 855.191C153.865 856.659 147.115 856.087 141 852" />
  <path data-draw d="M677 852L667 859M140 855L141 855" />
</svg>
